<mxfile host="Electron" agent="Mozilla/5.0 (Windows NT 10.0; Win64; x64) AppleWebKit/537.36 (KHTML, like Gecko) draw.io/25.0.2 Chrome/128.0.6613.186 Electron/32.2.5 Safari/537.36" version="25.0.2">
  <diagram name="Page-1" id="QbVM-qhq_BF2LXNoguQ5">
    <mxGraphModel dx="1195" dy="697" grid="1" gridSize="10" guides="1" tooltips="1" connect="1" arrows="1" fold="1" page="1" pageScale="1" pageWidth="850" pageHeight="1100" math="0" shadow="0">
      <root>
        <mxCell id="0" />
        <mxCell id="1" parent="0" />
        <mxCell id="mEob46jThGOG9od_VYb--470" value="Learner Node" style="text;align=center;verticalAlign=middle;resizable=0;points=[];autosize=1;strokeColor=none;fillColor=none;fontStyle=0;fontSize=20;fontFamily=CMU Sans Serif;" vertex="1" parent="1">
          <mxGeometry x="250.50000000000006" y="90" width="140" height="40" as="geometry" />
        </mxCell>
        <mxCell id="mEob46jThGOG9od_VYb--571" value="" style="rounded=0;whiteSpace=wrap;html=1;fontStyle=0;fontFamily=CMU Sans Serif;fillColor=#cccccc;" vertex="1" parent="1">
          <mxGeometry x="550" y="280" width="190" height="230" as="geometry" />
        </mxCell>
        <mxCell id="mEob46jThGOG9od_VYb--572" value="&lt;font color=&quot;#ffffff&quot;&gt;&lt;span style=&quot;font-size: 18px;&quot;&gt;&lt;b&gt;Legend&lt;/b&gt;&lt;/span&gt;&lt;/font&gt;" style="rounded=0;whiteSpace=wrap;html=1;fillColor=#000000;strokeColor=#000000;fontStyle=0;fontFamily=CMU Sans Serif;strokeWidth=2;verticalAlign=middle;" vertex="1" parent="1">
          <mxGeometry x="550" y="278.42" width="190" height="28.08" as="geometry" />
        </mxCell>
        <mxCell id="mEob46jThGOG9od_VYb--573" value="&lt;b&gt;&lt;font color=&quot;#000000&quot; style=&quot;font-size: 20px;&quot;&gt;A&lt;/font&gt;&lt;/b&gt;" style="ellipse;whiteSpace=wrap;html=1;aspect=fixed;fillColor=#99CCFF;strokeColor=#000000;strokeWidth=2;fontFamily=CMU Sans Serif;" vertex="1" parent="1">
          <mxGeometry x="559.9999999999999" y="319.4200000000001" width="26.36" height="26.36" as="geometry" />
        </mxCell>
        <mxCell id="mEob46jThGOG9od_VYb--574" value="&lt;font color=&quot;#000000&quot;&gt;&lt;span style=&quot;font-size: 18px;&quot;&gt;&lt;b&gt;Z&lt;/b&gt;&lt;/span&gt;&lt;/font&gt;" style="whiteSpace=wrap;html=1;aspect=fixed;fillColor=#FF9999;strokeColor=#000000;strokeWidth=2;shape=ellipse;perimeter=ellipsePerimeter;fontFamily=CMU Sans Serif;" vertex="1" parent="1">
          <mxGeometry x="560" y="359.69999999999993" width="26.36" height="26.36" as="geometry" />
        </mxCell>
        <mxCell id="mEob46jThGOG9od_VYb--591" value="&lt;font style=&quot;font-size: 16px;&quot;&gt;&lt;b style=&quot;&quot;&gt;&lt;font color=&quot;#6600cc&quot;&gt;DataTag1&lt;/font&gt;&lt;font color=&quot;#000000&quot;&gt;.hash1&lt;/font&gt;&lt;/b&gt;&lt;/font&gt;" style="rounded=1;whiteSpace=wrap;html=1;fillColor=#FFFFFF;strokeColor=none;fontStyle=0;fontFamily=CMU Sans Serif;strokeWidth=2;verticalAlign=middle;" vertex="1" parent="1">
          <mxGeometry x="595" y="321.6500000000001" width="135" height="21.91" as="geometry" />
        </mxCell>
        <mxCell id="mEob46jThGOG9od_VYb--594" value="&lt;font style=&quot;font-size: 16px;&quot;&gt;&lt;b style=&quot;&quot;&gt;&lt;font color=&quot;#6600cc&quot;&gt;DataTag1&lt;/font&gt;&lt;/b&gt;&lt;font color=&quot;#000000&quot;&gt;.hash2&lt;/font&gt;&lt;/font&gt;" style="rounded=1;whiteSpace=wrap;html=1;fillColor=#FFFFFF;strokeColor=none;fontStyle=0;fontFamily=CMU Sans Serif;strokeWidth=2;verticalAlign=middle;" vertex="1" parent="1">
          <mxGeometry x="595" y="361.9200000000001" width="135" height="21.91" as="geometry" />
        </mxCell>
        <mxCell id="mEob46jThGOG9od_VYb--678" value="&lt;font style=&quot;font-size: 20px;&quot; color=&quot;#000000&quot;&gt;FLOps Helper SLA&lt;/font&gt;" style="rounded=0;whiteSpace=wrap;html=1;fillColor=#FFFFFF;strokeColor=none;fontStyle=0;fontFamily=CMU Sans Serif;strokeWidth=2;verticalAlign=middle;" vertex="1" parent="1">
          <mxGeometry x="559.9999999999999" y="158.42000000000002" width="170" height="40" as="geometry" />
        </mxCell>
        <mxCell id="mEob46jThGOG9od_VYb--679" value="" style="rounded=0;whiteSpace=wrap;html=1;fontStyle=0;fontFamily=CMU Sans Serif;fillColor=#cccccc;" vertex="1" parent="1">
          <mxGeometry x="114" y="130" width="413" height="380" as="geometry" />
        </mxCell>
        <mxCell id="mEob46jThGOG9od_VYb--680" value="&lt;font style=&quot;font-size: 18px;&quot; color=&quot;#000000&quot;&gt;User ML Code&lt;/font&gt;" style="rounded=0;whiteSpace=wrap;html=1;fillColor=#FFCCCC;strokeColor=#FF6666;fontStyle=0;fontFamily=CMU Sans Serif;strokeWidth=2;verticalAlign=top;" vertex="1" parent="1">
          <mxGeometry x="140" y="140" width="150" height="74.33" as="geometry" />
        </mxCell>
        <mxCell id="mEob46jThGOG9od_VYb--681" value="" style="group;fontFamily=CMU Sans Serif;" vertex="1" connectable="0" parent="1">
          <mxGeometry x="199.99999999999994" y="172.37" width="56.81999999999999" height="40" as="geometry" />
        </mxCell>
        <mxCell id="mEob46jThGOG9od_VYb--682" value="" style="verticalLabelPosition=bottom;verticalAlign=top;html=1;shape=mxgraph.basic.6_point_star;fillColor=#FF99FF;strokeColor=#000000;strokeWidth=2;fontFamily=CMU Sans Serif;" vertex="1" parent="mEob46jThGOG9od_VYb--681">
          <mxGeometry x="-5.18" y="1.999999999999968" width="40" height="33.18" as="geometry" />
        </mxCell>
        <mxCell id="mEob46jThGOG9od_VYb--683" value="&lt;b&gt;&lt;font color=&quot;#000000&quot; style=&quot;font-size: 18px;&quot;&gt;D&lt;/font&gt;&lt;/b&gt;" style="text;html=1;align=center;verticalAlign=middle;resizable=0;points=[];autosize=1;fillColor=none;container=1;fontFamily=CMU Sans Serif;" vertex="1" parent="mEob46jThGOG9od_VYb--681">
          <mxGeometry x="-5.18" width="40" height="40" as="geometry" />
        </mxCell>
        <mxCell id="mEob46jThGOG9od_VYb--702" style="edgeStyle=orthogonalEdgeStyle;rounded=0;orthogonalLoop=1;jettySize=auto;html=1;strokeWidth=2;strokeColor=#000000;startArrow=classic;startFill=1;fontFamily=CMU Sans Serif;" edge="1" parent="1" source="mEob46jThGOG9od_VYb--693" target="mEob46jThGOG9od_VYb--698">
          <mxGeometry relative="1" as="geometry" />
        </mxCell>
        <mxCell id="mEob46jThGOG9od_VYb--693" value="&lt;font color=&quot;#000000&quot; style=&quot;font-size: 40px;&quot;&gt;...&lt;/font&gt;" style="rounded=0;whiteSpace=wrap;html=1;fillColor=#FFFFFF;strokeColor=#999999;fontStyle=0;fontFamily=CMU Sans Serif;strokeWidth=2;shape=cylinder3;boundedLbl=1;backgroundOutline=1;size=15;verticalAlign=bottom;" vertex="1" parent="1">
          <mxGeometry x="157.21000000000004" y="252.37" width="110" height="80" as="geometry" />
        </mxCell>
        <mxCell id="mEob46jThGOG9od_VYb--694" value="ML Data Volume" style="text;align=center;verticalAlign=middle;resizable=0;points=[];autosize=1;strokeColor=none;fillColor=none;fontStyle=0;fontSize=20;fontFamily=CMU Sans Serif;fontColor=#000000;" vertex="1" parent="1">
          <mxGeometry x="130.00000000000003" y="212.37" width="170" height="40" as="geometry" />
        </mxCell>
        <mxCell id="mEob46jThGOG9od_VYb--695" value="&lt;b&gt;&lt;font color=&quot;#000000&quot; style=&quot;font-size: 18px;&quot;&gt;A&lt;/font&gt;&lt;/b&gt;" style="whiteSpace=wrap;html=1;aspect=fixed;fillColor=#99CCFF;strokeColor=#000000;strokeWidth=2;shape=rhombus;perimeter=rhombusPerimeter;fontFamily=CMU Sans Serif;" vertex="1" parent="1">
          <mxGeometry x="164.02999999999997" y="294.54" width="26.36" height="26.36" as="geometry" />
        </mxCell>
        <mxCell id="mEob46jThGOG9od_VYb--697" value="&lt;b&gt;&lt;font color=&quot;#000000&quot; style=&quot;font-size: 18px;&quot;&gt;Z&lt;/font&gt;&lt;/b&gt;" style="whiteSpace=wrap;html=1;aspect=fixed;fillColor=#FF9999;strokeColor=#000000;strokeWidth=2;shape=rhombus;perimeter=rhombusPerimeter;verticalAlign=middle;fontFamily=CMU Sans Serif;" vertex="1" parent="1">
          <mxGeometry x="230.45999999999998" y="294.54" width="26.36" height="26.36" as="geometry" />
        </mxCell>
        <mxCell id="mEob46jThGOG9od_VYb--698" value="&lt;font style=&quot;font-size: 18px;&quot; color=&quot;#000000&quot;&gt;ML Data Server&lt;/font&gt;" style="rounded=0;whiteSpace=wrap;html=1;fillColor=#FFFFFF;strokeColor=#999999;fontStyle=0;fontFamily=CMU Sans Serif;strokeWidth=2;verticalAlign=top;" vertex="1" parent="1">
          <mxGeometry x="137.21000000000004" y="360" width="150" height="124" as="geometry" />
        </mxCell>
        <mxCell id="mEob46jThGOG9od_VYb--699" value="&lt;font style=&quot;font-size: 18px;&quot; color=&quot;#000000&quot;&gt;Arrow Flight&lt;/font&gt;&lt;div&gt;&lt;font style=&quot;font-size: 18px;&quot; color=&quot;#000000&quot;&gt;Server&lt;/font&gt;&lt;/div&gt;" style="rounded=0;whiteSpace=wrap;html=1;fillColor=#99FFCC;strokeColor=#000000;fontStyle=0;fontFamily=CMU Sans Serif;strokeWidth=2;" vertex="1" parent="1">
          <mxGeometry x="157.21000000000004" y="395" width="110" height="70" as="geometry" />
        </mxCell>
        <mxCell id="mEob46jThGOG9od_VYb--703" style="edgeStyle=orthogonalEdgeStyle;rounded=0;orthogonalLoop=1;jettySize=auto;html=1;entryX=-0.01;entryY=0.464;entryDx=0;entryDy=0;entryPerimeter=0;exitX=0;exitY=0.5;exitDx=0;exitDy=0;strokeWidth=2;strokeColor=#000000;dashed=1;dashPattern=1 2;fontFamily=CMU Sans Serif;" edge="1" parent="1" source="mEob46jThGOG9od_VYb--699" target="mEob46jThGOG9od_VYb--683">
          <mxGeometry relative="1" as="geometry">
            <Array as="points">
              <mxPoint x="125" y="430" />
              <mxPoint x="125" y="190" />
              <mxPoint x="194" y="190" />
            </Array>
          </mxGeometry>
        </mxCell>
        <mxCell id="mEob46jThGOG9od_VYb--704" value="&lt;font style=&quot;font-size: 18px;&quot; color=&quot;#000000&quot;&gt;&lt;b&gt;Mock Data Provider&lt;/b&gt;&lt;/font&gt;" style="rounded=1;whiteSpace=wrap;html=1;fillColor=#FFFFFF;strokeColor=none;fontStyle=0;fontFamily=CMU Sans Serif;strokeWidth=2;verticalAlign=bottom;" vertex="1" parent="1">
          <mxGeometry x="332.18" y="140" width="187.82" height="360" as="geometry" />
        </mxCell>
        <mxCell id="mEob46jThGOG9od_VYb--706" style="edgeStyle=orthogonalEdgeStyle;rounded=0;orthogonalLoop=1;jettySize=auto;html=1;entryX=1;entryY=0.5;entryDx=0;entryDy=0;strokeWidth=2;strokeColor=#000000;fontFamily=CMU Sans Serif;" edge="1" parent="1" source="mEob46jThGOG9od_VYb--705" target="mEob46jThGOG9od_VYb--699">
          <mxGeometry relative="1" as="geometry" />
        </mxCell>
        <mxCell id="mEob46jThGOG9od_VYb--705" value="&lt;font style=&quot;font-size: 18px;&quot; color=&quot;#000000&quot;&gt;Arrow Flight&lt;/font&gt;&lt;div&gt;&lt;font style=&quot;font-size: 18px;&quot; color=&quot;#000000&quot;&gt;Client&lt;/font&gt;&lt;/div&gt;" style="rounded=1;whiteSpace=wrap;html=1;fillColor=#99FFCC;strokeColor=#000000;fontStyle=0;fontFamily=CMU Sans Serif;strokeWidth=2;" vertex="1" parent="1">
          <mxGeometry x="371.09000000000003" y="395" width="110" height="70" as="geometry" />
        </mxCell>
        <mxCell id="mEob46jThGOG9od_VYb--707" value="&lt;b&gt;&lt;font color=&quot;#000000&quot; style=&quot;font-size: 18px;&quot;&gt;A&lt;/font&gt;&lt;/b&gt;" style="whiteSpace=wrap;html=1;aspect=fixed;fillColor=#99CCFF;strokeColor=#000000;strokeWidth=2;shape=rhombus;perimeter=rhombusPerimeter;fontFamily=CMU Sans Serif;" vertex="1" parent="1">
          <mxGeometry x="293" y="417" width="26.36" height="26.36" as="geometry" />
        </mxCell>
        <mxCell id="mEob46jThGOG9od_VYb--708" value="&lt;b&gt;&lt;font color=&quot;#000000&quot; style=&quot;font-size: 18px;&quot;&gt;Z&lt;/font&gt;&lt;/b&gt;" style="whiteSpace=wrap;html=1;aspect=fixed;fillColor=#FF9999;strokeColor=#000000;strokeWidth=2;shape=rhombus;perimeter=rhombusPerimeter;verticalAlign=middle;fontFamily=CMU Sans Serif;" vertex="1" parent="1">
          <mxGeometry x="338" y="417" width="26.36" height="26.36" as="geometry" />
        </mxCell>
        <mxCell id="mEob46jThGOG9od_VYb--709" value="&lt;font&gt;&lt;span style=&quot;font-size: 18px;&quot;&gt;Flower&lt;br&gt;Datasets&lt;/span&gt;&lt;/font&gt;" style="rounded=1;whiteSpace=wrap;html=1;fillColor=#000000;strokeColor=#000000;fontStyle=0;fontFamily=CMU Sans Serif;strokeWidth=2;fontColor=#FFFFFF;" vertex="1" parent="1">
          <mxGeometry x="386.18" y="153.42000000000002" width="80" height="50" as="geometry" />
        </mxCell>
        <mxCell id="mEob46jThGOG9od_VYb--711" value="&lt;b&gt;&lt;font color=&quot;#000000&quot; style=&quot;font-size: 18px;&quot;&gt;D&lt;/font&gt;&lt;/b&gt;" style="whiteSpace=wrap;html=1;aspect=fixed;fillColor=#ff99ff;strokeColor=#000000;strokeWidth=2;shape=mxgraph.basic.pentagon;fontFamily=CMU Sans Serif;" vertex="1" parent="1">
          <mxGeometry x="413" y="228.42000000000002" width="26.36" height="26.36" as="geometry" />
        </mxCell>
        <mxCell id="mEob46jThGOG9od_VYb--725" style="edgeStyle=orthogonalEdgeStyle;rounded=0;orthogonalLoop=1;jettySize=auto;html=1;entryX=0.5;entryY=0;entryDx=0;entryDy=0;strokeColor=#000000;" edge="1" parent="1" source="mEob46jThGOG9od_VYb--712" target="mEob46jThGOG9od_VYb--714">
          <mxGeometry relative="1" as="geometry" />
        </mxCell>
        <mxCell id="mEob46jThGOG9od_VYb--712" value="&lt;b&gt;&lt;font color=&quot;#000000&quot; style=&quot;font-size: 18px;&quot;&gt;A&lt;/font&gt;&lt;/b&gt;" style="whiteSpace=wrap;html=1;aspect=fixed;fillColor=#99CCFF;strokeColor=#000000;strokeWidth=2;shape=mxgraph.basic.pentagon;fontFamily=CMU Sans Serif;" vertex="1" parent="1">
          <mxGeometry x="365.64" y="278.42" width="26.36" height="26.36" as="geometry" />
        </mxCell>
        <mxCell id="mEob46jThGOG9od_VYb--726" style="edgeStyle=orthogonalEdgeStyle;rounded=0;orthogonalLoop=1;jettySize=auto;html=1;entryX=0.5;entryY=0;entryDx=0;entryDy=0;strokeColor=#000000;" edge="1" parent="1" source="mEob46jThGOG9od_VYb--713" target="mEob46jThGOG9od_VYb--715">
          <mxGeometry relative="1" as="geometry" />
        </mxCell>
        <mxCell id="mEob46jThGOG9od_VYb--713" value="&lt;b&gt;&lt;font color=&quot;#000000&quot; style=&quot;font-size: 18px;&quot;&gt;Z&lt;/font&gt;&lt;/b&gt;" style="whiteSpace=wrap;html=1;aspect=fixed;fillColor=#FF9999;strokeColor=#000000;strokeWidth=2;shape=mxgraph.basic.pentagon;verticalAlign=middle;fontFamily=CMU Sans Serif;" vertex="1" parent="1">
          <mxGeometry x="460" y="278.42" width="26.36" height="26.36" as="geometry" />
        </mxCell>
        <mxCell id="mEob46jThGOG9od_VYb--730" style="edgeStyle=orthogonalEdgeStyle;rounded=0;orthogonalLoop=1;jettySize=auto;html=1;entryX=0.5;entryY=0;entryDx=0;entryDy=0;strokeColor=#000000;" edge="1" parent="1" source="mEob46jThGOG9od_VYb--714" target="mEob46jThGOG9od_VYb--705">
          <mxGeometry relative="1" as="geometry">
            <Array as="points">
              <mxPoint x="379" y="375" />
              <mxPoint x="426" y="375" />
            </Array>
          </mxGeometry>
        </mxCell>
        <mxCell id="mEob46jThGOG9od_VYb--714" value="&lt;b&gt;&lt;font color=&quot;#000000&quot; style=&quot;font-size: 18px;&quot;&gt;A&lt;/font&gt;&lt;/b&gt;" style="whiteSpace=wrap;html=1;aspect=fixed;fillColor=#99CCFF;strokeColor=#000000;strokeWidth=2;shape=rhombus;perimeter=rhombusPerimeter;fontFamily=CMU Sans Serif;" vertex="1" parent="1">
          <mxGeometry x="365.64" y="334.78000000000003" width="26.36" height="26.36" as="geometry" />
        </mxCell>
        <mxCell id="mEob46jThGOG9od_VYb--732" style="edgeStyle=orthogonalEdgeStyle;rounded=0;orthogonalLoop=1;jettySize=auto;html=1;entryX=0.5;entryY=0;entryDx=0;entryDy=0;strokeColor=#000000;" edge="1" parent="1" source="mEob46jThGOG9od_VYb--715" target="mEob46jThGOG9od_VYb--705">
          <mxGeometry relative="1" as="geometry">
            <Array as="points">
              <mxPoint x="473" y="375" />
              <mxPoint x="426" y="375" />
            </Array>
          </mxGeometry>
        </mxCell>
        <mxCell id="mEob46jThGOG9od_VYb--715" value="&lt;b&gt;&lt;font color=&quot;#000000&quot; style=&quot;font-size: 18px;&quot;&gt;Z&lt;/font&gt;&lt;/b&gt;" style="whiteSpace=wrap;html=1;aspect=fixed;fillColor=#FF9999;strokeColor=#000000;strokeWidth=2;shape=rhombus;perimeter=rhombusPerimeter;verticalAlign=middle;fontFamily=CMU Sans Serif;" vertex="1" parent="1">
          <mxGeometry x="460" y="334.78000000000003" width="26.36" height="26.36" as="geometry" />
        </mxCell>
        <mxCell id="mEob46jThGOG9od_VYb--717" style="edgeStyle=orthogonalEdgeStyle;rounded=0;orthogonalLoop=1;jettySize=auto;html=1;entryX=0.5;entryY=0;entryDx=0;entryDy=0;entryPerimeter=0;strokeColor=#000000;fontFamily=CMU Sans Serif;" edge="1" parent="1" source="mEob46jThGOG9od_VYb--709" target="mEob46jThGOG9od_VYb--711">
          <mxGeometry relative="1" as="geometry" />
        </mxCell>
        <mxCell id="mEob46jThGOG9od_VYb--718" style="edgeStyle=orthogonalEdgeStyle;rounded=0;orthogonalLoop=1;jettySize=auto;html=1;entryX=0.5;entryY=0;entryDx=0;entryDy=0;entryPerimeter=0;strokeColor=#000000;fontFamily=CMU Sans Serif;" edge="1" parent="1" source="mEob46jThGOG9od_VYb--711" target="mEob46jThGOG9od_VYb--712">
          <mxGeometry relative="1" as="geometry" />
        </mxCell>
        <mxCell id="mEob46jThGOG9od_VYb--719" style="edgeStyle=orthogonalEdgeStyle;rounded=0;orthogonalLoop=1;jettySize=auto;html=1;entryX=0.5;entryY=0;entryDx=0;entryDy=0;entryPerimeter=0;strokeColor=#000000;fontFamily=CMU Sans Serif;" edge="1" parent="1" source="mEob46jThGOG9od_VYb--711" target="mEob46jThGOG9od_VYb--713">
          <mxGeometry relative="1" as="geometry" />
        </mxCell>
        <mxCell id="mEob46jThGOG9od_VYb--724" style="edgeStyle=orthogonalEdgeStyle;rounded=0;orthogonalLoop=1;jettySize=auto;html=1;strokeColor=#000000;exitX=0.498;exitY=0.577;exitDx=0;exitDy=0;exitPerimeter=0;entryX=0.496;entryY=0.964;entryDx=0;entryDy=0;entryPerimeter=0;startArrow=classic;startFill=1;endArrow=none;endFill=0;" edge="1" parent="1" source="mEob46jThGOG9od_VYb--723" target="mEob46jThGOG9od_VYb--720">
          <mxGeometry relative="1" as="geometry">
            <mxPoint x="426" y="309" as="targetPoint" />
          </mxGeometry>
        </mxCell>
        <mxCell id="mEob46jThGOG9od_VYb--720" value="..." style="text;align=center;verticalAlign=middle;resizable=0;points=[];autosize=1;strokeColor=none;fillColor=none;fontStyle=1;fontSize=30;fontFamily=CMU Sans Serif;fontColor=#000000;" vertex="1" parent="1">
          <mxGeometry x="401.18" y="254.59000000000003" width="50" height="50" as="geometry" />
        </mxCell>
        <mxCell id="mEob46jThGOG9od_VYb--721" style="edgeStyle=orthogonalEdgeStyle;rounded=0;orthogonalLoop=1;jettySize=auto;html=1;exitX=0.496;exitY=0.508;exitDx=0;exitDy=0;exitPerimeter=0;strokeWidth=1;strokeColor=#000000;entryX=0.494;entryY=0.03;entryDx=0;entryDy=0;entryPerimeter=0;startArrow=classic;startFill=1;endArrow=none;endFill=0;" edge="1" parent="1" source="mEob46jThGOG9od_VYb--720" target="mEob46jThGOG9od_VYb--720">
          <mxGeometry relative="1" as="geometry">
            <mxPoint x="426" y="250" as="targetPoint" />
          </mxGeometry>
        </mxCell>
        <mxCell id="mEob46jThGOG9od_VYb--731" style="edgeStyle=orthogonalEdgeStyle;rounded=0;orthogonalLoop=1;jettySize=auto;html=1;entryX=0.5;entryY=0;entryDx=0;entryDy=0;strokeColor=#000000;" edge="1" parent="1" source="mEob46jThGOG9od_VYb--723" target="mEob46jThGOG9od_VYb--705">
          <mxGeometry relative="1" as="geometry" />
        </mxCell>
        <mxCell id="mEob46jThGOG9od_VYb--723" value="..." style="text;align=center;verticalAlign=middle;resizable=0;points=[];autosize=1;strokeColor=none;fillColor=none;fontStyle=1;fontSize=30;fontFamily=CMU Sans Serif;fontColor=#000000;" vertex="1" parent="1">
          <mxGeometry x="401.09000000000003" y="311.14000000000004" width="50" height="50" as="geometry" />
        </mxCell>
        <mxCell id="mEob46jThGOG9od_VYb--716" value="" style="rounded=0;whiteSpace=wrap;html=1;strokeColor=#000000;fillColor=#FFFFFF;strokeWidth=2;fontFamily=CMU Sans Serif;" vertex="1" parent="1">
          <mxGeometry x="360" y="314.42" width="130" height="5" as="geometry" />
        </mxCell>
        <mxCell id="mEob46jThGOG9od_VYb--710" style="edgeStyle=orthogonalEdgeStyle;rounded=0;orthogonalLoop=1;jettySize=auto;html=1;entryX=1;entryY=0.5;entryDx=0;entryDy=0;strokeWidth=2;strokeColor=#FF6666;fontFamily=CMU Sans Serif;" edge="1" parent="1" source="mEob46jThGOG9od_VYb--678" target="mEob46jThGOG9od_VYb--709">
          <mxGeometry relative="1" as="geometry" />
        </mxCell>
        <mxCell id="mEob46jThGOG9od_VYb--734" value="&lt;b&gt;&lt;font color=&quot;#000000&quot; style=&quot;font-size: 18px;&quot;&gt;D&lt;/font&gt;&lt;/b&gt;" style="whiteSpace=wrap;html=1;aspect=fixed;fillColor=#FFFFFF;strokeColor=#000000;strokeWidth=2;shape=rhombus;verticalAlign=middle;fontFamily=CMU Sans Serif;perimeter=rhombusPerimeter;" vertex="1" parent="1">
          <mxGeometry x="560" y="399.99999999999994" width="26.36" height="26.36" as="geometry" />
        </mxCell>
        <mxCell id="mEob46jThGOG9od_VYb--735" value="&lt;font style=&quot;font-size: 16px;&quot; color=&quot;#000000&quot;&gt;Parquet Format&lt;/font&gt;" style="rounded=1;whiteSpace=wrap;html=1;fillColor=#FFFFFF;strokeColor=none;fontStyle=0;fontFamily=CMU Sans Serif;strokeWidth=2;verticalAlign=middle;" vertex="1" parent="1">
          <mxGeometry x="595" y="402.22999999999996" width="135" height="21.91" as="geometry" />
        </mxCell>
        <mxCell id="mEob46jThGOG9od_VYb--736" value="&lt;b&gt;&lt;font color=&quot;#000000&quot; style=&quot;font-size: 18px;&quot;&gt;D&lt;/font&gt;&lt;/b&gt;" style="whiteSpace=wrap;html=1;aspect=fixed;fillColor=#FFFFFF;strokeColor=#000000;strokeWidth=2;shape=mxgraph.basic.pentagon;verticalAlign=middle;fontFamily=CMU Sans Serif;" vertex="1" parent="1">
          <mxGeometry x="560" y="436.81999999999994" width="26.36" height="26.36" as="geometry" />
        </mxCell>
        <mxCell id="mEob46jThGOG9od_VYb--737" value="&lt;font style=&quot;font-size: 16px;&quot; color=&quot;#000000&quot;&gt;Arrow Format&lt;/font&gt;" style="rounded=1;whiteSpace=wrap;html=1;fillColor=#FFFFFF;strokeColor=none;fontStyle=0;fontFamily=CMU Sans Serif;strokeWidth=2;verticalAlign=middle;" vertex="1" parent="1">
          <mxGeometry x="595" y="439.04999999999995" width="135" height="21.91" as="geometry" />
        </mxCell>
        <mxCell id="mEob46jThGOG9od_VYb--739" value="&lt;font style=&quot;font-size: 16px;&quot; color=&quot;#000000&quot;&gt;Final Training Data&lt;/font&gt;" style="rounded=1;whiteSpace=wrap;html=1;fillColor=#FFFFFF;strokeColor=none;fontStyle=0;fontFamily=CMU Sans Serif;strokeWidth=2;verticalAlign=middle;" vertex="1" parent="1">
          <mxGeometry x="595" y="479.86999999999995" width="135" height="21.91" as="geometry" />
        </mxCell>
        <mxCell id="mEob46jThGOG9od_VYb--741" value="" style="group;fontFamily=CMU Sans Serif;" vertex="1" connectable="0" parent="1">
          <mxGeometry x="558" y="469" width="56.81999999999999" height="40" as="geometry" />
        </mxCell>
        <mxCell id="mEob46jThGOG9od_VYb--742" value="" style="verticalLabelPosition=bottom;verticalAlign=top;html=1;shape=mxgraph.basic.6_point_star;fillColor=#FF99FF;strokeColor=#000000;strokeWidth=2;fontFamily=CMU Sans Serif;" vertex="1" parent="mEob46jThGOG9od_VYb--741">
          <mxGeometry x="-5.18" y="1.999999999999968" width="40" height="33.18" as="geometry" />
        </mxCell>
        <mxCell id="mEob46jThGOG9od_VYb--743" value="&lt;b&gt;&lt;font color=&quot;#000000&quot; style=&quot;font-size: 18px;&quot;&gt;D&lt;/font&gt;&lt;/b&gt;" style="text;html=1;align=center;verticalAlign=middle;resizable=0;points=[];autosize=1;fillColor=none;container=1;fontFamily=CMU Sans Serif;" vertex="1" parent="mEob46jThGOG9od_VYb--741">
          <mxGeometry x="-5.18" width="40" height="40" as="geometry" />
        </mxCell>
      </root>
    </mxGraphModel>
  </diagram>
</mxfile>
